<svg width="14" height="24" viewBox="0 0 14 24" fill="none" xmlns="http://www.w3.org/2000/svg">
<path fill-rule="evenodd" clip-rule="evenodd" d="M7.70698 15.5747C7.51945 15.7621 7.26514 15.8674 6.99998 15.8674C6.73481 15.8674 6.4805 15.7621 6.29298 15.5747L0.635977 9.91765C0.540467 9.82541 0.464284 9.71506 0.411875 9.59306C0.359466 9.47105 0.33188 9.33983 0.330726 9.20705C0.329572 9.07427 0.354874 8.9426 0.405155 8.8197C0.455436 8.6968 0.529689 8.58515 0.623582 8.49126C0.717475 8.39736 0.829126 8.32311 0.952023 8.27283C1.07492 8.22255 1.2066 8.19725 1.33938 8.1984C1.47216 8.19956 1.60338 8.22714 1.72538 8.27955C1.84739 8.33196 1.95773 8.40814 2.04998 8.50365L6.99998 13.4537L11.95 8.50365C12.1386 8.32149 12.3912 8.2207 12.6534 8.22298C12.9156 8.22526 13.1664 8.33043 13.3518 8.51583C13.5372 8.70124 13.6424 8.95205 13.6447 9.21425C13.6469 9.47645 13.5461 9.72905 13.364 9.91765L7.70698 15.5747Z" fill="white"/>
</svg>
